<svg width="235" height="24" viewBox="0 0 235 24" fill="none" xmlns="http://www.w3.org/2000/svg">
<path fill-rule="evenodd" clip-rule="evenodd" d="M101.945 23.4595C105.377 23.4595 107.613 21.7591 108.684 19.2715V23.1447H111.455V0H108.684V11.3676C107.645 8.94297 105.44 7.17957 101.945 7.17957C97.4735 7.17957 94.608 10.5489 94.608 15.3038C94.608 20.0587 97.4735 23.4595 101.945 23.4595ZM97.4105 15.3038C97.4105 11.3991 99.8352 9.57276 102.858 9.57276C105.913 9.57276 108.589 11.4936 108.589 15.3038C108.589 19.1455 105.913 21.0664 102.858 21.0664C99.8352 21.0664 97.4105 19.2085 97.4105 15.3038Z" fill="#F9F9F9"/>
<path fill-rule="evenodd" clip-rule="evenodd" d="M0 23.1447H2.96L5.85702 14.6425H14.4221L17.2876 23.1447H20.2791L12.7217 0.944679H7.58893L0 23.1447ZM6.67574 12.1864L10.1396 2.01532L13.5719 12.1864H6.67574Z" fill="#F9F9F9"/>
<path d="M29.6128 23.4595C33.6434 23.4595 35.7847 21.8536 35.7847 19.0196C35.7847 16.5949 34.1787 15.3038 31.5336 14.5481L27.8808 13.5089C26.3379 13.0681 25.6451 12.4383 25.6451 11.3991C25.6451 10.234 26.8732 9.35233 28.8885 9.35233C31.2817 9.35233 32.6042 10.5489 32.6042 12.4383H35.4068C35.4068 9.03744 32.8877 7.17957 28.857 7.17957C25.1413 7.17957 22.874 8.72254 22.874 11.4621C22.874 13.9498 24.7319 15.0834 26.4953 15.5872L30.6834 16.8153C32.3208 17.2562 32.9821 17.8859 32.9821 18.9566C32.9821 20.5625 31.8485 21.2553 29.6443 21.2553C26.7472 21.2553 25.0468 19.9642 25.0468 17.3821H22.2443C22.2443 21.2553 24.9523 23.4595 29.6128 23.4595Z" fill="#F9F9F9"/>
<path d="M46.6089 23.4595C41.5391 23.4595 38.5791 19.9013 38.5791 15.3038C38.5791 10.7379 41.5391 7.17957 46.6089 7.17957C49.7578 7.17957 53.631 8.94297 54.0089 13.4774H51.2063C50.7655 10.6119 48.8761 9.57276 46.6089 9.57276C43.0821 9.57276 41.3502 12.1549 41.3502 15.3038C41.3502 18.4842 43.0821 21.0664 46.6089 21.0664C48.8761 21.0664 50.7655 20.0272 51.2063 17.1617H54.0089C53.631 21.6961 49.7578 23.4595 46.6089 23.4595Z" fill="#F9F9F9"/>
<path fill-rule="evenodd" clip-rule="evenodd" d="M57.1529 15.1149C57.1529 19.7438 59.735 23.4595 64.8363 23.4595C69.6542 23.4595 71.7325 20.5625 72.3622 17.6655H69.5912C69.0559 19.8383 67.4814 21.2238 64.8048 21.2238C61.5614 21.2238 59.9554 18.8936 59.861 15.8391H72.2993V14.8315C72.2993 9.98212 69.2763 7.17957 64.6473 7.17957C60.1759 7.17957 57.1529 10.0451 57.1529 15.1149ZM59.8925 13.8553C60.1129 11.0213 62.0652 9.38382 64.6473 9.38382C67.4499 9.38382 69.3708 11.0213 69.5597 13.8553H59.8925Z" fill="#F9F9F9"/>
<path d="M78.913 23.1447H76.1105V7.49446H78.913V11.7455C79.7632 8.94297 81.936 7.17957 85.3998 7.17957C88.9896 7.17957 91.1309 9.50978 91.1309 13.7293V23.1447H88.3283V14.0442C88.3283 10.8323 87.1002 9.57276 84.4236 9.57276C81.0228 9.57276 78.913 12.2808 78.913 16.5004V23.1447Z" fill="#F9F9F9"/>
<path d="M126.302 23.1447H114.998V20.7515H119.343V9.88765H116.1V7.49446H120.162C121.295 7.49446 121.925 8.02978 121.925 9.32084V20.7515H126.302V23.1447Z" fill="#F9F9F9"/>
<path d="M120.288 4.81787C119.06 4.81787 118.084 3.93617 118.084 2.70808C118.084 1.48 119.06 0.598297 120.288 0.598297C121.547 0.598297 122.555 1.48 122.555 2.70808C122.555 3.93617 121.547 4.81787 120.288 4.81787Z" fill="#F9F9F9"/>
<path fill-rule="evenodd" clip-rule="evenodd" d="M127.819 15.3038C127.819 19.9642 131.126 23.4595 136.133 23.4595C141.108 23.4595 144.414 19.9642 144.414 15.3038C144.414 10.6749 141.108 7.17957 136.133 7.17957C131.126 7.17957 127.819 10.6749 127.819 15.3038ZM130.59 15.3038C130.59 12.1549 132.543 9.57276 136.133 9.57276C139.691 9.57276 141.643 12.1549 141.643 15.3038C141.643 18.4842 139.691 21.0664 136.133 21.0664C132.543 21.0664 130.59 18.4842 130.59 15.3038Z" fill="#F9F9F9"/>
<path d="M150.994 23.1447H148.191V7.49446H150.994V11.7455C151.844 8.94297 154.017 7.17957 157.481 7.17957C161.071 7.17957 163.212 9.50978 163.212 13.7293V23.1447H160.409V14.0442C160.409 10.8323 159.181 9.57276 156.505 9.57276C153.104 9.57276 150.994 12.2808 150.994 16.5004V23.1447Z" fill="#F9F9F9"/>
<path d="M210.968 0.815433C211.257 0.597027 211.61 0.496225 212.012 0.496225C212.928 0.496225 213.618 1.15144 213.618 2.02506C213.618 2.15947 213.618 2.34427 213.522 2.54588L206.437 22.1184C206.244 22.656 205.955 23.076 205.601 23.3448C205.184 23.664 204.702 23.8152 204.123 23.8152H203.818C203.24 23.8152 202.758 23.6808 202.372 23.3952C201.971 23.1096 201.681 22.6896 201.489 22.1352L194.532 2.44507L194.516 2.36107L194.508 2.32208C194.491 2.23832 194.468 2.12106 194.468 1.99146C194.468 1.13464 195.191 0.496225 196.139 0.496225C196.556 0.496225 196.91 0.613828 197.183 0.832234C197.408 1.01704 197.585 1.26904 197.713 1.58825V1.60505L203.979 19.1279L210.405 1.57145C210.518 1.25224 210.71 1.00024 210.968 0.815433Z" fill="#F9F9F9"/>
<path d="M227.178 2.27707L234.649 22.0175C234.729 22.1856 234.761 22.3704 234.761 22.5384C234.761 23.3616 234.054 24 233.155 24C232.721 24 232.383 23.916 232.11 23.748C231.837 23.58 231.644 23.3112 231.532 22.9584L229.813 18.4895H222.728C222.053 18.4895 221.346 17.8846 221.346 16.8598C221.346 15.9694 221.973 15.2302 222.728 15.2302H228.544L224.431 4.29312L217.314 23.0424C217.201 23.3784 216.992 23.6136 216.719 23.7816C216.462 23.9328 216.141 24 215.739 24C215.257 24 214.855 23.8656 214.566 23.6136C214.277 23.3616 214.116 22.992 214.116 22.572C214.116 22.3872 214.149 22.2024 214.229 22.0175V22.0007L221.651 2.31067L221.667 2.27707C221.957 1.52105 222.696 0.66423 223.885 0.66423H224.961C226.07 0.66423 226.889 1.50425 227.178 2.27707Z" fill="#F9F9F9"/>
<path d="M193.857 22.0343L186.387 2.29386C186.097 1.52105 185.278 0.681025 184.169 0.681025H183.077C181.888 0.681025 181.149 1.53785 180.86 2.29386V2.31067L173.453 21.9839L173.437 22.0175C173.357 22.2192 173.325 22.404 173.325 22.572C173.325 22.992 173.486 23.3616 173.775 23.6136C174.064 23.8656 174.466 24 174.948 24C175.349 24 175.671 23.9328 175.928 23.7816C176.201 23.6136 176.41 23.3616 176.522 23.0424L183.639 4.29311L187.768 15.2302H181.952C181.197 15.2302 180.571 15.9694 180.571 16.8598C180.571 17.8846 181.278 18.4895 181.952 18.4895H189.021L190.74 22.9584C190.853 23.3112 191.046 23.58 191.319 23.748C191.592 23.916 191.929 24 192.363 24C193.263 24 193.97 23.3616 193.97 22.5552C193.97 22.3872 193.938 22.2024 193.857 22.0343Z" fill="#F9F9F9"/>
</svg>
