<svg width="24" height="24" viewBox="0 0 24 24" fill="none" xmlns="http://www.w3.org/2000/svg">
<path d="M14.6778 12.0012C14.6778 11.8778 14.6367 11.7544 14.5339 11.631C13.7523 10.8494 12.9501 10.0472 12.1686 9.26566C11.6955 8.7926 10.9756 9.51248 11.4487 9.98554C11.9629 10.4997 12.4565 10.9934 12.9707 11.5076C10.1529 11.5076 7.31457 11.5076 4.49678 11.5076C4.37337 11.5076 4.24996 11.5487 4.18826 11.6104C4.06485 11.6927 3.98258 11.8366 4.00315 12.0218C4.06485 14.8395 5.48403 17.4722 7.9316 18.912C12.3742 21.5652 18.3595 19.1382 19.717 14.0991C21.0744 9.01885 17.146 4.10314 11.9835 4.0003C11.3253 3.97974 11.3253 5.00813 11.9835 5.02869C14.8218 5.0904 17.4134 6.75639 18.4623 9.40964C19.4907 11.9806 18.8531 14.9835 16.9197 16.9375C14.9658 18.8914 11.9629 19.5084 9.39192 18.48C6.90321 17.4928 5.25779 15.1275 5.03154 12.5154C7.66422 12.5154 10.2763 12.5154 12.909 12.5154C12.3948 13.0296 11.9012 13.5232 11.387 14.0374C10.9139 14.5105 11.6544 15.2303 12.1069 14.7573C12.909 13.9551 13.7112 13.153 14.5339 12.3303C14.6367 12.248 14.6778 12.1246 14.6778 12.0012Z" fill="rgb(0, 64, 221)"/>
</svg>
