<svg width="24" height="24" viewBox="0 0 24 24" fill="none" xmlns="http://www.w3.org/2000/svg">
<path fill-rule="evenodd" clip-rule="evenodd" d="M4.70838 8.99125C4.70831 8.99672 4.70831 9.00219 4.70838 9.00766V16C4.70838 17.0785 5.5882 17.9583 6.66672 17.9583H17.3334C18.4119 17.9583 19.2917 17.0785 19.2917 16V9.00765C19.2918 9.00219 19.2918 8.99672 19.2917 8.99126V8.00001C19.2917 6.92149 18.4119 6.04167 17.3334 6.04167H6.66672C5.5882 6.04167 4.70838 6.92149 4.70838 8.00001V8.99125ZM5.95838 8.00001C5.95838 7.61185 6.27856 7.29167 6.66672 7.29167H17.3334C17.7215 7.29167 18.0417 7.61185 18.0417 8.00001V8.67459L12 12.9038L5.95838 8.67459V8.00001ZM18.0417 10.2004V16C18.0417 16.3882 17.7215 16.7083 17.3334 16.7083H6.66672C6.27856 16.7083 5.95838 16.3882 5.95838 16V10.2004L11.6416 14.1787C11.8568 14.3293 12.1433 14.3293 12.3585 14.1787L18.0417 10.2004Z" fill="rgb(0, 64, 221)"/>
</svg>
