<svg width="24" height="24" viewBox="0 0 24 24" fill="none" xmlns="http://www.w3.org/2000/svg">
<path d="M9.5 17C9.5 17.2761 9.72386 17.5 10 17.5C10.2761 17.5 10.5 17.2761 10.5 17V11C10.5 10.7239 10.2761 10.5 10 10.5C9.72386 10.5 9.5 10.7239 9.5 11V17Z" fill="rgb(0, 64, 221)"/>
<path d="M12.5 17.5C12.2239 17.5 12 17.2761 12 17V13C12 12.7239 12.2239 12.5 12.5 12.5C12.7761 12.5 13 12.7239 13 13V17C13 17.2761 12.7761 17.5 12.5 17.5Z" fill="rgb(0, 64, 221)"/>
<path d="M14.5 17C14.5 17.2761 14.7239 17.5 15 17.5C15.2761 17.5 15.5 17.2761 15.5 17V15C15.5 14.7239 15.2761 14.5 15 14.5C14.7239 14.5 14.5 14.7239 14.5 15V17Z" fill="rgb(0, 64, 221)"/>
<path fill-rule="evenodd" clip-rule="evenodd" d="M19 9.50395V17.5C19 18.8807 17.8807 20 16.5 20H8.5C7.11929 20 6 18.8807 6 17.5V6.5C6 5.11929 7.11929 4 8.5 4H13.5C13.5226 4 13.5449 4.00152 13.5669 4.0045L19 9.50395ZM15.5 10C14.1193 10 13 8.88071 13 7.5V5H8.5C7.67158 5 7 5.67158 7 6.5V17.5C7 18.3285 7.67158 19 8.5 19H16.5C17.3285 19 18 18.3285 18 17.5V10H15.5ZM17.2929 9L14 5.70711V7.5C14 8.32842 14.6715 9 15.5 9H17.2929Z" fill="rgb(0, 64, 221)"/>
<path d="M18.9998 9.48721C19 9.49279 19 9.49838 19 9.50395V9.5C19 9.49574 18.9999 9.49147 18.9998 9.48721Z" fill="rgb(0, 64, 221)"/>
</svg>
