<svg width="20" height="20" viewBox="0 0 20 20" fill="none" xmlns="http://www.w3.org/2000/svg">
<path d="M10.0002 3.33333C8.89681 3.33087 7.81041 3.60467 6.84002 4.12974C5.86963 4.65482 5.04613 5.41447 4.44461 6.33942V4.81481H3.3335V8.51851H7.03719V7.4074H5.09768C5.73477 6.21447 6.78628 5.29585 8.05396 4.82474C9.32163 4.35363 10.7179 4.36258 11.9794 4.84991C13.2409 5.33724 14.2806 6.26928 14.9023 7.47027C15.524 8.67127 15.6849 10.0582 15.3546 11.3697C15.0242 12.6811 14.2255 13.8263 13.109 14.5895C11.9925 15.3526 10.6354 15.6809 9.29351 15.5124C7.95166 15.344 6.7178 14.6904 5.82459 13.6749C4.93138 12.6595 4.44053 11.3524 4.44461 9.99999H3.3335C3.3335 11.3185 3.72449 12.6075 4.45703 13.7038C5.18957 14.8001 6.23076 15.6546 7.44893 16.1592C8.66711 16.6638 10.0075 16.7958 11.3008 16.5385C12.594 16.2813 13.7818 15.6464 14.7142 14.714C15.6465 13.7817 16.2815 12.5938 16.5387 11.3006C16.7959 10.0074 16.6639 8.66694 16.1593 7.44877C15.6548 6.23059 14.8003 5.18941 13.7039 4.45686C12.6076 3.72432 11.3187 3.33333 10.0002 3.33333Z" fill="white"/>
</svg>
