<svg width="20" height="20" viewBox="0 0 20 20" fill="none" xmlns="http://www.w3.org/2000/svg">
<path d="M11.8554 16.6666C11.668 16.6655 11.4845 16.6141 11.3238 16.5177C11.1631 16.4213 11.0314 16.2835 10.9422 16.1187L8.43093 11.6167C8.41839 11.5923 8.39944 11.5718 8.3761 11.5573L3.87411 9.05983C3.6348 8.9255 3.45697 8.70353 3.37796 8.44069C3.29908 8.17785 3.32527 7.89461 3.45104 7.65074C3.5768 7.40674 3.79225 7.22115 4.05215 7.13299L15.2613 3.38894C15.5119 3.30435 15.7852 3.31658 16.0272 3.42329C16.2693 3.52999 16.4626 3.72333 16.5693 3.96538C16.676 4.20742 16.6883 4.48067 16.6037 4.73128L12.8596 15.9405C12.7955 16.1374 12.6745 16.3109 12.5121 16.4392C12.3496 16.5676 12.1528 16.6451 11.9464 16.6619L11.8554 16.6666ZM15.5491 4.25206L4.34431 7.99141C4.28723 8.00813 4.24596 8.05776 4.23994 8.11687C4.23393 8.17609 4.2643 8.23306 4.31689 8.26088L8.81888 10.763C8.99163 10.8588 9.13401 11.0011 9.22981 11.1739L11.7319 15.6759C11.7583 15.7288 11.8147 15.7596 11.8734 15.7534C11.933 15.7503 11.9841 15.7101 12.0014 15.653L15.7407 4.43916C15.7596 4.38617 15.7452 4.32695 15.7041 4.28853C15.6651 4.24847 15.6066 4.23431 15.5535 4.25194L15.5491 4.25206Z" fill="white"/>
<path d="M8.40823 10.9376L15.7017 3.64414L16.3474 4.28989L9.05398 11.5834L8.40823 10.9376Z" fill="white"/>
</svg>
