<svg width="24" height="24" viewBox="0 0 24 24" fill="none" xmlns="http://www.w3.org/2000/svg">
<circle cx="12" cy="12" r="11.5" fill="white" stroke="#71758A"/>
<path d="M16.5284 6.66667H8.74499C8.507 6.66746 8.27485 6.74046 8.07924 6.87603C7.88362 7.01159 7.73376 7.20332 7.64945 7.42589L6.03685 11.7256C6.01237 11.7913 5.99988 11.8608 6 11.9309V13.1007C6 13.7459 6.52467 14.2705 7.16983 14.2705H10.4524L9.79608 16.2399C9.73757 16.4158 9.72159 16.603 9.74945 16.7862C9.77731 16.9694 9.84821 17.1434 9.95635 17.2939C10.1763 17.5981 10.5307 17.78 10.9062 17.78H11.8491C12.0228 17.78 12.1872 17.7028 12.2989 17.5694L15.048 14.2705H16.5284C17.1736 14.2705 17.6982 13.7459 17.6982 13.1007V7.8365C17.6982 7.19134 17.1736 6.66667 16.5284 6.66667ZM11.5748 16.6102H10.9051L11.8187 13.8705C11.848 13.7826 11.856 13.689 11.842 13.5974C11.828 13.5058 11.7925 13.4189 11.7384 13.3437C11.6842 13.2686 11.613 13.2074 11.5306 13.1651C11.4481 13.1228 11.3568 13.1008 11.2642 13.1007H7.16983V12.0368L8.74499 7.8365H14.1888V13.4739L11.5748 16.6102ZM15.3586 13.1007V7.8365H16.5284L16.529 13.1007H15.3586Z" fill="#71758A"/>
</svg>
