<svg width="24" height="24" viewBox="0 0 24 24" fill="none" xmlns="http://www.w3.org/2000/svg">
<circle cx="12" cy="12" r="11.5" fill="white" stroke="#71758A"/>
<path d="M16.5284 10.1761H13.2459L13.9027 8.20675C14.0209 7.85112 13.9612 7.45689 13.7419 7.15273C13.5226 6.84858 13.1669 6.66667 12.792 6.66667H11.8491C11.6754 6.66667 11.511 6.74388 11.3993 6.87724L8.65024 10.1761H7.16982C6.52467 10.1761 6 10.7008 6 11.346V16.6102C6 17.2553 6.52467 17.78 7.16982 17.78H14.9533C15.1912 17.7792 15.4234 17.7062 15.619 17.5707C15.8146 17.4351 15.9645 17.2434 16.0488 17.0208L17.6614 12.7211C17.6859 12.6554 17.6984 12.5859 17.6982 12.5158V11.346C17.6982 10.7008 17.1736 10.1761 16.5284 10.1761ZM7.16982 11.346H8.33965V16.6102H7.16982V11.346ZM16.5284 12.4099L14.9533 16.6102H9.50947V10.9728L12.1229 7.8365H12.7932L11.8795 10.5756C11.8499 10.6636 11.8416 10.7573 11.8554 10.849C11.8692 10.9408 11.9047 11.0279 11.9589 11.1033C12.0131 11.1786 12.0845 11.2399 12.1671 11.2821C12.2497 11.3243 12.3412 11.3462 12.434 11.346H16.5284V12.4099Z" fill="#71758A"/>
</svg>
